<?xml version="1.0" ?><svg viewBox="0 0 22.156 22.174" xmlns="http://www.w3.org/2000/svg"><g data-name="Layer 2" id="Layer_2"><g data-name="Layer 1" id="Layer_1-2"><path d="M20.478.018h-.894a.336.336,0,0,0,0,.672h.894A1.008,1.008,0,0,1,21.485,1.7v9.064h-2.8a.336.336,0,1,0,0,.671h2.8v4.7h-4.7v-2.8a.336.336,0,0,0-.672,0v2.8h-4.7v-2.8a.336.336,0,1,0-.671,0v2.8h-2.8a.336.336,0,0,0,0,.672h2.8v4.7H1.678A1.008,1.008,0,0,1,.671,20.5V16.8h2.8a.336.336,0,1,0,0-.672H.671v-4.7h2.8a.336.336,0,1,0,0-.671H.671V6.06h4.7v2.8a.336.336,0,1,0,.671,0V6.06h4.7v2.8a.336.336,0,0,0,.671,0V5.725a.337.337,0,0,0-.336-.337H6.517l4.7-4.7h2.1a.336.336,0,0,0,0-.672H1.678A1.68,1.68,0,0,0,0,1.7V20.5a1.68,1.68,0,0,0,1.678,1.678h18.8A1.68,1.68,0,0,0,22.156,20.5V1.7A1.68,1.68,0,0,0,20.478.018ZM.671,1.7A1.008,1.008,0,0,1,1.678.69h8.59l-4.7,4.7H.671ZM21.485,20.5A1.008,1.008,0,0,1,20.478,21.5H11.414V16.8H21.485ZM16.45,4.775a1.455,1.455,0,0,0,0-2.91A1.455,1.455,0,0,0,16.45,4.775Zm0-2.238a.784.784,0,0,1,0,1.567A.784.784,0,0,1,16.45,2.537ZM14.115,5.655l2,2v3.107H5.707a.335.335,0,0,0-.336.335v6.646a1.453,1.453,0,1,0,.671,0v-6.31H16.45a.336.336,0,0,0,.336-.336V7.654l2-2a3.3,3.3,0,1,0-4.67,0ZM6.49,19.154a.784.784,0,0,1-1.567,0A.784.784,0,0,1,6.49,19.154ZM14.59,1.46a2.631,2.631,0,0,1,3.72,3.72L16.45,7.041,14.59,5.18A2.642,2.642,0,0,1,14.59,1.46Z" id="destination"/></g></g></svg>