<?xml version="1.0" ?><svg xmlns="http://www.w3.org/2000/svg" xmlns:xlink="http://www.w3.org/1999/xlink" version="1.1" id="Layer_1" viewBox="0 0 512 512" style="enable-background:new 0 0 512 512;" xml:space="preserve"><g id="XMLID_59_"><path d="M481,181H375.684l2.999-3.599C384.103,170.896,379.457,161,371,161h-49.229l18.515-46.286   C342.912,108.147,338.062,101,331,101h-50c-4.089,0-7.767,2.489-9.285,6.286L242.229,181h-47.852   C212.063,152.408,221,128.951,221,111C221,50.346,171.654,1,111,1S1,50.346,1,111c0,17.989,8.973,41.506,26.733,70.181   C12.723,182.814,1,195.562,1,211v270c0,16.542,13.458,30,30,30h450c16.542,0,30-13.458,30-30V211C511,194.458,497.542,181,481,181z    M401,468.073V491h-40v-22.927C374.059,471.975,387.929,471.978,401,468.073z M381,451c-27.57,0-50-22.43-50-50s22.43-50,50-50   s50,22.43,50,50S408.57,451,381,451z M401,311v22.927c-13.059-3.902-26.929-3.905-40,0V201h40v50c0,5.522,4.478,10,10,10h80v40h-80   C405.478,301,401,305.478,401,311z M491,211v30h-70v-40h60C486.514,201,491,205.486,491,211z M234.229,201l-2.514,6.286   C229.088,213.853,233.938,221,241,221h37.192l-16.894,67.574c-1.132,4.525,1.016,9.23,5.174,11.342   c4.153,2.109,9.219,1.075,12.21-2.515L341,222.621v120.984c-15.525,10.853-26.462,27.825-29.274,47.396h-36.295   C261.96,391,251,401.96,251,415.431c0,8.421-6.589,15.404-14.689,15.566C227.744,431.135,221,424.302,221,416v-39.431   c0-19.23-15.382-35.184-34.288-35.563C167.072,340.61,151,356.376,151,376v59.431c0,8.421-6.589,15.404-14.689,15.566   C127.763,451.118,121,444.337,121,436V320.554c34.348-3.033,60-21.509,60-44.554c0-14.941-11.004-28.45-29.003-36.694   c9.979-12.196,20.029-25.236,29.172-38.306H234.229z M111,21c49.626,0,90,40.374,90,90c0,39.91-63.012,115.726-90.001,145.327   C84.018,226.746,21,150.926,21,111C21,61.374,61.374,21,111,21z M21,481V211c0-5.514,4.486-10,10-10h9.831   c9.141,13.067,19.19,26.107,29.172,38.306C52.004,247.55,41,261.059,41,276c0,23.045,25.652,41.521,60,44.554V436   c0,19.703,16.163,35.389,35.712,34.993C155.618,470.614,171,454.661,171,435.431V376c0-8.427,6.894-15.159,15.311-14.997   c8.1,0.162,14.689,7.146,14.689,15.566V416c0,19.839,16.327,35.406,35.712,34.993C255.618,450.614,271,434.661,271,415.431   c0-2.443,1.987-4.431,4.431-4.431h36.295c2.813,19.571,13.75,36.543,29.274,47.396V491H31C25.486,491,21,486.514,21,481z M481,491   h-60v-32.604c39.991-27.956,39.98-86.843,0-114.791V321h70v160C491,486.514,486.514,491,481,491z"/><path d="M381,371c-16.542,0-30,13.458-30,30s13.458,30,30,30s30-13.458,30-30S397.542,371,381,371z M381,411   c-5.514,0-10-4.486-10-10s4.486-10,10-10s10,4.486,10,10S386.514,411,381,411z"/><path d="M111,161c33.084,0,60-26.916,60-60s-26.916-60-60-60s-60,26.916-60,60S77.916,161,111,161z M111,61   c22.056,0,40,17.944,40,40s-17.944,40-40,40s-40-17.944-40-40S88.944,61,111,61z"/><path d="M71,451H51c-5.522,0-10,4.478-10,10s4.478,10,10,10h20c5.522,0,10-4.478,10-10S76.522,451,71,451z"/></g></svg>